<svg xmlns="http://www.w3.org/2000/svg" version="1.1" xmlns:xlink="http://www.w3.org/1999/xlink" xmlns:svgjs="http://svgjs.dev/svgjs" width="1500" height="1500" viewBox="0 0 1500 1500"><rect width="1500" height="1500" fill="#000000"></rect><g transform="matrix(0.6666666666666666,0,0,0.6666666666666666,249.39393939393938,438.5856950067477)"><svg viewBox="0 0 396 247" data-background-color="#fbeaab" preserveAspectRatio="xMidYMid meet" height="935" width="1500" xmlns="http://www.w3.org/2000/svg" xmlns:xlink="http://www.w3.org/1999/xlink"><g id="tight-bounds" transform="matrix(1,0,0,1,0.2400000000000091,-0.09999999999999432)"><svg viewBox="0 0 395.52 247.2" height="247.2" width="395.52"><g><svg></svg></g><g><svg viewBox="0 0 395.52 247.2" height="247.2" width="395.52"><mask id="b338fc81-1866-41d2-9432-14f246421e19"><rect width="395.52" height="247.2" fill="white"></rect><g transform="matrix(1,0,0,1,0,66.05186158951965)" id="clone"><svg viewBox="0 0 395.52 115.0962768209607" height="115.0962768209607" width="395.52"><g><svg viewBox="0 0 395.52 115.0962768209607" height="115.0962768209607" width="395.52"><g><svg viewBox="0 0 395.52 115.0962768209607" height="115.0962768209607" width="395.52"><g><svg viewBox="0 0 395.52 115.0962768209607" height="115.0962768209607" width="395.52"><g id="SvgjsG1377"><svg viewBox="0 0 395.52 115.0962768209607" height="115.0962768209607" width="395.52" id="SvgjsSvg1376"><g><svg viewBox="0 0 395.52 68.36681222707423" height="68.36681222707423" width="395.52"><g transform="matrix(1,0,0,1,0,0)"><svg width="395.52" viewBox="-0.5 -42 275.78 48.5" height="68.36681222707423" data-palette-color="#ffa96a"><path d="M8.8-8.65L14.75-4.75 20.05-5 25.4-14.6 25-25.4 21.6-30.35 10.7-31.8 6.8-25.6 6.05-13.55 8.8-8.65ZM24.5-0.75L29.9-0.15 28.8 3.5 22.55 2 19.3-0.85 11.25-0.65 2.5-10.5 3-27.5 9.55-34.8 20.8-35 27.55-29.1 29.8-13.3 22.7-1.85 24.5-0.75ZM60.2-6.5L62.4-2.7 55.05 0.8 52.25 0.05 51.35-2.85 50.7-6.3 41.85 0.75 36.65-1.05 35.15-6.95 35-22.35 32.9-23.25 33.05-24.45 42-24.65 41.75-22.85 39.15-21.8 39.15-7.7 41-3.25 44.25-5.05 50.3-8.4 51.1-22.3 48.9-23.3 49.05-24.65 56.95-24.65 57.2-22.95 54.6-21.95 54.45-3.4 55.2-2.15 60.2-6.5ZM74.09-0.75L74.3 0.65 64.3 0.75 64.05-0.7 66.7-1.75 66.9-22.9 63.25-24.15 62.9-25.4 73.3-26 73.8-25 70.75-23.3 70.55-1.8 74.09-0.75ZM71.25-30.8L67.45-29.2 65.75-32.6 67.8-34.55 71-34.15 71.25-30.8ZM79.04-25.7L81.39-25.15 96.44-25.7 96.59-21.8 82.04-3.05 92.69-4.1 93.24-7.1 97.34-7.4 97.39-0.15 77.29-0.5 77.69-3.7 91.84-22 81.74-22.6 80.79-20.5 78.94-20.85 79.04-25.7ZM103.14-25.7L105.49-25.15 120.54-25.7 120.69-21.8 106.14-3.05 116.79-4.1 117.34-7.1 121.44-7.4 121.49-0.15 101.39-0.5 101.79-3.7 115.94-22 105.84-22.6 104.89-20.5 103.04-20.85 103.14-25.7ZM175.09-35.65L186.39-34.85 186.24-33.4 182.84-32.7 182.49-32.55 174.34 0.65 169.34 0.65 163.29-27.25 163.14-28.65 162.99-28.65 162.79-27.3 157.29 0.25 151.44 0.25 142.89-32.85 139.49-33.8 139.49-35.25 150.69-35.25 150.69-33.8 147.59-32.85 147.59-32.85 153.64-4 154.54-3.85 161.24-33.7 164.84-33.7 171.69-3.25 172.44-3.25 178.64-32.9 175.04-34.2 175.09-35.65ZM198.83-22.55L193.73-22.95 189.33-17.25 190.28-7.4 195.83-2.15 199.58-2.2 204.28-11.4 202.18-20.05 198.83-22.55ZM192.13-26.3L200.53-26.3 205.83-21.4 207.83-9.95 200.78 1.1 193.78 1.4 186.43-7.45 185.88-18.85 192.13-26.3ZM225.53-24.8L229.08-20.6 226.03-18 223.38-21.85 219.33-20.5 218.13-17.85 218.33-2.85 221.28-1.9 220.98-0.15 212.13-0.15 211.98-1.5 214.33-2.45 214.28-22.45 211.83-23.85 213.98-26.6 217.63-24.25 217.93-22.55 220.48-23.55 225.53-24.8ZM243.03-1.95L243.28-0.05 232.73-0.25 232.58-1.55 236.18-2.6 236.18-32.6 233.53-32.05 233.73-35.35 240.08-35.5 239.63-2.65 243.03-1.95ZM262.43-9.1L262.68-19.95 256.83-22.15 251.48-20.4 250.18-10.6 254.63-3.25 257.48-3.9 262.43-9.1ZM272.28-0.9L264.28-0.25 262.23-4.8 258.93-0.35 251.33-0.8 246.28-10.9 249.28-22.6 256.53-25.5 263.23-22.75 263.48-35.25 266.63-39 269.43-36.7 267.33-34.95 266.48-3.1 271.28-4 272.28-0.9Z" opacity="1" transform="matrix(1,0,0,1,0,0)" fill="black" class="wordmark-text-0" id="SvgjsPath1375" stroke-width="5" stroke="black" stroke-linejoin="round"></path></svg></g></svg></g><g transform="matrix(1,0,0,1,2.5,77.29302791266375)"><svg viewBox="0 0 390.52 37.803248908296936" height="37.803248908296936" width="390.52"><g transform="matrix(1,0,0,1,0,0)"><svg width="390.52" viewBox="-2.95 -38.35 452.61 44.625" height="37.803248908296936" data-palette-color="#ceb700"><path d="M12.65 0L7 0Q6.8 0 6.8-0.25L6.8-0.25 6.8-28.75 0.3-28.75Q0.05-28.75 0.05-29L0.05-29 0.1-34.6Q0.1-34.8 0.3-34.8L0.3-34.8 19.3-34.8Q19.55-34.8 19.55-34.6L19.55-34.6 19.55-29Q19.55-28.75 19.35-28.75L19.35-28.75 12.8-28.75 12.85-0.25Q12.85 0 12.65 0L12.65 0ZM37.36 0L31.71 0Q31.51 0 31.51-0.25L31.51-0.25 31.56-34.6Q31.56-34.8 31.81-34.8L31.81-34.8 37.36-34.8Q37.61-34.8 37.61-34.6L37.61-34.6 37.56-21 45.06-21 45.06-34.6Q45.06-34.8 45.26-34.8L45.26-34.8 50.81-34.8Q51.06-34.8 51.06-34.6L51.06-34.6 51.16-0.25Q51.16 0 50.91 0L50.91 0 45.31 0Q45.06 0 45.06-0.25L45.06-0.25 45.06-14.95 37.56-14.95 37.56-0.25Q37.56 0 37.36 0L37.36 0ZM81.12 0L64.97 0Q64.77 0 64.77-0.25L64.77-0.25 64.82-34.6Q64.82-34.8 65.02-34.8L65.02-34.8 81.07-34.8Q81.27-34.8 81.27-34.55L81.27-34.55 81.27-28.95Q81.27-28.75 81.07-28.75L81.07-28.75 70.82-28.75 70.82-20.95 81.07-20.95Q81.27-20.95 81.27-20.75L81.27-20.75 81.32-15.1Q81.32-14.9 81.12-14.9L81.12-14.9 70.82-14.9 70.82-6.15 81.12-6.15Q81.32-6.15 81.32-5.9L81.32-5.9 81.32-0.2Q81.32 0 81.12 0L81.12 0ZM121.34 0L112.39 0Q112.19 0 112.19-0.25L112.19-0.25 112.29-34.6Q112.29-34.8 112.49-34.8L112.49-34.8 122.09-34.8Q124.94-34.8 127.19-33.43 129.44-32.05 130.74-29.8 132.04-27.55 132.04-24.9L132.04-24.9Q132.04-22.75 131.07-20.9 130.09-19.05 128.74-17.9L128.74-17.9Q130.19-16.45 130.99-14.55 131.79-12.65 131.79-10.55L131.79-10.55Q131.79-7.65 130.39-5.25 128.99-2.85 126.62-1.43 124.24 0 121.34 0L121.34 0ZM118.29-28.85L118.29-21 122.09-21Q123.84-21 124.92-22.23 125.99-23.45 125.99-24.9L125.99-24.9Q125.99-26.5 124.84-27.68 123.69-28.85 122.09-28.85L122.09-28.85 118.29-28.85ZM118.29-14.95L118.24-6.1 121.34-6.1Q123.14-6.1 124.44-7.43 125.74-8.75 125.74-10.55L125.74-10.55Q125.74-12.35 124.44-13.65 123.14-14.95 121.34-14.95L121.34-14.95 118.29-14.95ZM161.25 0L145.1 0Q144.9 0 144.9-0.25L144.9-0.25 144.95-34.6Q144.95-34.8 145.15-34.8L145.15-34.8 161.2-34.8Q161.4-34.8 161.4-34.55L161.4-34.55 161.4-28.95Q161.4-28.75 161.2-28.75L161.2-28.75 150.95-28.75 150.95-20.95 161.2-20.95Q161.4-20.95 161.4-20.75L161.4-20.75 161.45-15.1Q161.45-14.9 161.25-14.9L161.25-14.9 150.95-14.9 150.95-6.15 161.25-6.15Q161.45-6.15 161.45-5.9L161.45-5.9 161.45-0.2Q161.45 0 161.25 0L161.25 0ZM183.61 0.5L183.61 0.5Q180.91 0.5 178.69-0.88 176.46-2.25 175.14-4.53 173.81-6.8 173.81-9.55L173.81-9.55 173.81-11.85Q173.81-12.1 174.06-12.1L174.06-12.1 179.66-12.1Q179.86-12.1 179.86-11.85L179.86-11.85 179.86-9.55Q179.86-7.9 180.96-6.73 182.06-5.55 183.61-5.55L183.61-5.55Q185.16-5.55 186.26-6.75 187.36-7.95 187.36-9.55L187.36-9.55Q187.36-11.4 184.96-12.75L184.96-12.75Q184.16-13.2 182.46-14.15 180.76-15.1 179.26-15.95L179.26-15.95Q176.51-17.55 175.19-19.98 173.86-22.4 173.86-25.45L173.86-25.45Q173.86-28.25 175.21-30.48 176.56-32.7 178.79-34 181.01-35.3 183.61-35.3L183.61-35.3Q186.26-35.3 188.49-33.98 190.71-32.65 192.04-30.43 193.36-28.2 193.36-25.45L193.36-25.45 193.36-21.35Q193.36-21.15 193.16-21.15L193.16-21.15 187.56-21.15Q187.36-21.15 187.36-21.35L187.36-21.35 187.31-25.45Q187.31-27.2 186.21-28.3 185.11-29.4 183.61-29.4L183.61-29.4Q182.06-29.4 180.96-28.23 179.86-27.05 179.86-25.45L179.86-25.45Q179.86-23.8 180.56-22.7 181.26-21.6 183.11-20.6L183.11-20.6Q183.36-20.45 184.09-20.08 184.81-19.7 185.66-19.23 186.51-18.75 187.19-18.4 187.86-18.05 188.01-17.95L188.01-17.95Q190.51-16.55 191.96-14.53 193.41-12.5 193.41-9.55L193.41-9.55Q193.41-6.7 192.09-4.42 190.76-2.15 188.54-0.83 186.31 0.5 183.61 0.5ZM216.83 0L211.18 0Q210.98 0 210.98-0.25L210.98-0.25 210.98-28.75 204.48-28.75Q204.23-28.75 204.23-29L204.23-29 204.28-34.6Q204.28-34.8 204.48-34.8L204.48-34.8 223.48-34.8Q223.73-34.8 223.73-34.6L223.73-34.6 223.73-29Q223.73-28.75 223.53-28.75L223.53-28.75 216.98-28.75 217.03-0.25Q217.03 0 216.83 0L216.83 0ZM269.05 3.2L269.05 3.2 265.6-0.3Q263.8 0.5 261.85 0.5L261.85 0.5Q259.2 0.5 256.95-0.85 254.7-2.2 253.35-4.5 252-6.8 252-9.55L252-9.55 252.05-25.4Q252.05-28.05 253.35-30.33 254.65-32.6 256.87-33.98 259.1-35.35 261.85-35.35L261.85-35.35Q264.5-35.35 266.72-34.02 268.95-32.7 270.27-30.45 271.6-28.2 271.6-25.4L271.6-25.4 271.65-9.55Q271.65-8.1 271.25-6.75 270.85-5.4 270.2-4.25L270.2-4.25 273.3-1.1Q273.5-0.9 273.35-0.75L273.35-0.75 269.4 3.2Q269.2 3.35 269.05 3.2ZM261.85-5.55L261.85-5.55Q263.55-5.55 264.57-6.83 265.6-8.1 265.6-9.55L265.6-9.55 265.55-25.4Q265.55-27 264.5-28.18 263.45-29.35 261.85-29.35L261.85-29.35Q260.15-29.35 259.12-28.15 258.1-26.95 258.1-25.4L258.1-25.4 258.1-9.55Q258.1-7.75 259.27-6.65 260.45-5.55 261.85-5.55ZM294.91 0.5L294.91 0.5Q292.26 0.5 290.01-0.88 287.76-2.25 286.43-4.55 285.11-6.85 285.11-9.6L285.11-9.6 285.21-34.6Q285.21-34.8 285.41-34.8L285.41-34.8 291.01-34.8Q291.21-34.8 291.21-34.6L291.21-34.6 291.21-9.6Q291.21-7.9 292.28-6.73 293.36-5.55 294.91-5.55L294.91-5.55Q296.51-5.55 297.58-6.73 298.66-7.9 298.66-9.6L298.66-9.6 298.66-34.6Q298.66-34.8 298.86-34.8L298.86-34.8 304.46-34.8Q304.66-34.8 304.66-34.6L304.66-34.6 304.76-9.6Q304.76-6.8 303.43-4.5 302.11-2.2 299.88-0.85 297.66 0.5 294.91 0.5ZM324.12 0L318.47 0Q318.22 0 318.22-0.25L318.22-0.25 318.27-34.6Q318.27-34.8 318.47-34.8L318.47-34.8 324.07-34.8Q324.27-34.8 324.27-34.6L324.27-34.6 324.32-0.25Q324.32 0 324.12 0L324.12 0ZM355.53 0L336.88 0Q336.63 0 336.63-0.25L336.63-0.25 336.68-5.7 348.93-29.1 337.33-29.1Q337.13-29.1 337.13-29.3L337.13-29.3 337.13-34.55Q337.13-34.8 337.33-34.8L337.33-34.8 355.43-34.8Q355.68-34.8 355.68-34.55L355.68-34.55 355.68-29.15 343.48-5.85 355.53-5.85Q355.73-5.85 355.73-5.6L355.73-5.6 355.78-0.25Q355.78 0 355.53 0L355.53 0ZM385.24 0L366.59 0Q366.34 0 366.34-0.25L366.34-0.25 366.39-5.7 378.64-29.1 367.04-29.1Q366.84-29.1 366.84-29.3L366.84-29.3 366.84-34.55Q366.84-34.8 367.04-34.8L367.04-34.8 385.14-34.8Q385.39-34.8 385.39-34.55L385.39-34.55 385.39-29.15 373.19-5.85 385.24-5.85Q385.44-5.85 385.44-5.6L385.44-5.6 385.49-0.25Q385.49 0 385.24 0L385.24 0ZM414.5 0L398.35 0Q398.15 0 398.15-0.25L398.15-0.25 398.2-34.6Q398.2-34.8 398.4-34.8L398.4-34.8 414.45-34.8Q414.65-34.8 414.65-34.55L414.65-34.55 414.65-28.95Q414.65-28.75 414.45-28.75L414.45-28.75 404.2-28.75 404.2-20.95 414.45-20.95Q414.65-20.95 414.65-20.75L414.65-20.75 414.7-15.1Q414.7-14.9 414.5-14.9L414.5-14.9 404.2-14.9 404.2-6.15 414.5-6.15Q414.7-6.15 414.7-5.9L414.7-5.9 414.7-0.2Q414.7 0 414.5 0L414.5 0ZM436.86 0.5L436.86 0.5Q434.16 0.5 431.94-0.88 429.71-2.25 428.39-4.53 427.06-6.8 427.06-9.55L427.06-9.55 427.06-11.85Q427.06-12.1 427.31-12.1L427.31-12.1 432.91-12.1Q433.11-12.1 433.11-11.85L433.11-11.85 433.11-9.55Q433.11-7.9 434.21-6.73 435.31-5.55 436.86-5.55L436.86-5.55Q438.41-5.55 439.51-6.75 440.61-7.95 440.61-9.55L440.61-9.55Q440.61-11.4 438.21-12.75L438.21-12.75Q437.41-13.2 435.71-14.15 434.01-15.1 432.51-15.95L432.51-15.95Q429.76-17.55 428.44-19.98 427.11-22.4 427.11-25.45L427.11-25.45Q427.11-28.25 428.46-30.48 429.81-32.7 432.04-34 434.26-35.3 436.86-35.3L436.86-35.3Q439.51-35.3 441.74-33.98 443.96-32.65 445.29-30.43 446.61-28.2 446.61-25.45L446.61-25.45 446.61-21.35Q446.61-21.15 446.41-21.15L446.41-21.15 440.81-21.15Q440.61-21.15 440.61-21.35L440.61-21.35 440.56-25.45Q440.56-27.2 439.46-28.3 438.36-29.4 436.86-29.4L436.86-29.4Q435.31-29.4 434.21-28.23 433.11-27.05 433.11-25.45L433.11-25.45Q433.11-23.8 433.81-22.7 434.51-21.6 436.36-20.6L436.36-20.6Q436.61-20.45 437.34-20.08 438.06-19.7 438.91-19.23 439.76-18.75 440.44-18.4 441.11-18.05 441.26-17.95L441.26-17.95Q443.76-16.55 445.21-14.53 446.66-12.5 446.66-9.55L446.66-9.55Q446.66-6.7 445.34-4.42 444.01-2.15 441.79-0.83 439.56 0.5 436.86 0.5Z" opacity="1" transform="matrix(1,0,0,1,0,0)" fill="black" class="slogan-text-1" id="SvgjsPath1374" stroke-width="5" stroke="black" stroke-linejoin="round"></path></svg></g></svg></g></svg></g></svg></g></svg></g></svg></g></svg></g></mask><g mask="url(#b338fc81-1866-41d2-9432-14f246421e19)"><g><path d="M34.367 162.926l31.513 20.655 28.071-1.324 28.336-50.845-2.119-57.201-18.007-26.217-57.731-7.679-20.656 32.837-3.972 63.821zM117.52 204.767l28.6 3.178-5.826 19.331-33.102-7.944-17.213-15.095-42.636 1.059-46.343-52.169 2.648-90.038 34.691-38.663 59.584-1.06 35.751 31.249 11.917 83.682-37.604 60.644zM334.671 19.924l59.849 4.237-0.794 7.679-18.008 3.708-1.854 0.794-43.165 175.84h-26.482l-32.043-147.769-0.794-7.415h-0.795l-1.059 7.15-29.13 145.915h-30.984l-45.284-175.31-18.008-5.031v-7.68h59.32v7.68l-16.419 5.031v0l32.043 152.801 4.767 0.794 35.485-158.096h19.067l36.28 161.274h3.973l32.837-157.037-19.067-6.886z" fill="#ffffff" fill-rule="nonzero" stroke="none" stroke-width="1" stroke-linecap="butt" stroke-linejoin="miter" stroke-miterlimit="10" stroke-dasharray="" stroke-dashoffset="0" font-family="none" font-weight="none" font-size="none" text-anchor="none" style="mix-blend-mode: normal" data-fill-palette-color="tertiary"></path></g></g><g transform="matrix(1,0,0,1,0,66.05186158951965)"><svg viewBox="0 0 395.52 115.0962768209607" height="115.0962768209607" width="395.52"><g><svg viewBox="0 0 395.52 115.0962768209607" height="115.0962768209607" width="395.52"><g><svg viewBox="0 0 395.52 115.0962768209607" height="115.0962768209607" width="395.52"><g><svg viewBox="0 0 395.52 115.0962768209607" height="115.0962768209607" width="395.52"><g id="textblocktransform"><svg viewBox="0 0 395.52 115.0962768209607" height="115.0962768209607" width="395.52" id="textblock"><g><svg viewBox="0 0 395.52 68.36681222707423" height="68.36681222707423" width="395.52"><g transform="matrix(1,0,0,1,0,0)"><svg width="395.52" viewBox="-0.5 -42 275.78 48.5" height="68.36681222707423" data-palette-color="#ffa96a"><path d="M8.8-8.65L14.75-4.75 20.05-5 25.4-14.6 25-25.4 21.6-30.35 10.7-31.8 6.8-25.6 6.05-13.55 8.8-8.65ZM24.5-0.75L29.9-0.15 28.8 3.5 22.55 2 19.3-0.85 11.25-0.65 2.5-10.5 3-27.5 9.55-34.8 20.8-35 27.55-29.1 29.8-13.3 22.7-1.85 24.5-0.75ZM60.2-6.5L62.4-2.7 55.05 0.8 52.25 0.05 51.35-2.85 50.7-6.3 41.85 0.75 36.65-1.05 35.15-6.95 35-22.35 32.9-23.25 33.05-24.45 42-24.65 41.75-22.85 39.15-21.8 39.15-7.7 41-3.25 44.25-5.05 50.3-8.4 51.1-22.3 48.9-23.3 49.05-24.65 56.95-24.65 57.2-22.95 54.6-21.95 54.45-3.4 55.2-2.15 60.2-6.5ZM74.09-0.75L74.3 0.65 64.3 0.75 64.05-0.7 66.7-1.75 66.9-22.9 63.25-24.15 62.9-25.4 73.3-26 73.8-25 70.75-23.3 70.55-1.8 74.09-0.75ZM71.25-30.8L67.45-29.2 65.75-32.6 67.8-34.55 71-34.15 71.25-30.8ZM79.04-25.7L81.39-25.15 96.44-25.7 96.59-21.8 82.04-3.05 92.69-4.1 93.24-7.1 97.34-7.4 97.39-0.15 77.29-0.5 77.69-3.7 91.84-22 81.74-22.6 80.79-20.5 78.94-20.85 79.04-25.7ZM103.14-25.7L105.49-25.15 120.54-25.7 120.69-21.8 106.14-3.05 116.79-4.1 117.34-7.1 121.44-7.4 121.49-0.15 101.39-0.5 101.79-3.7 115.94-22 105.84-22.6 104.89-20.5 103.04-20.85 103.14-25.7ZM175.09-35.65L186.39-34.85 186.24-33.4 182.84-32.7 182.49-32.55 174.34 0.65 169.34 0.65 163.29-27.25 163.14-28.65 162.99-28.65 162.79-27.3 157.29 0.25 151.44 0.25 142.89-32.85 139.49-33.8 139.49-35.25 150.69-35.25 150.69-33.8 147.59-32.85 147.59-32.85 153.64-4 154.54-3.85 161.24-33.7 164.84-33.7 171.69-3.25 172.44-3.25 178.64-32.9 175.04-34.2 175.09-35.65ZM198.83-22.55L193.73-22.95 189.33-17.25 190.28-7.4 195.83-2.15 199.58-2.2 204.28-11.4 202.18-20.05 198.83-22.55ZM192.13-26.3L200.53-26.3 205.83-21.4 207.83-9.95 200.78 1.1 193.78 1.4 186.43-7.45 185.88-18.85 192.13-26.3ZM225.53-24.8L229.08-20.6 226.03-18 223.38-21.85 219.33-20.5 218.13-17.85 218.33-2.85 221.28-1.9 220.98-0.15 212.13-0.15 211.98-1.5 214.33-2.45 214.28-22.45 211.83-23.85 213.98-26.6 217.63-24.25 217.93-22.55 220.48-23.55 225.53-24.8ZM243.03-1.95L243.28-0.05 232.73-0.25 232.58-1.55 236.18-2.6 236.18-32.6 233.53-32.05 233.73-35.35 240.08-35.5 239.63-2.65 243.03-1.95ZM262.43-9.1L262.68-19.95 256.83-22.15 251.48-20.4 250.18-10.6 254.63-3.25 257.48-3.9 262.43-9.1ZM272.28-0.9L264.28-0.25 262.23-4.8 258.93-0.35 251.33-0.8 246.28-10.9 249.28-22.6 256.53-25.5 263.23-22.75 263.48-35.25 266.63-39 269.43-36.7 267.33-34.95 266.48-3.1 271.28-4 272.28-0.9Z" opacity="1" transform="matrix(1,0,0,1,0,0)" fill="#ffffff" class="wordmark-text-0" data-fill-palette-color="primary" id="text-0"></path></svg></g></svg></g><g transform="matrix(1,0,0,1,2.5,77.29302791266375)"><svg viewBox="0 0 390.52 37.803248908296936" height="37.803248908296936" width="390.52"><g transform="matrix(1,0,0,1,0,0)"><svg width="390.52" viewBox="-2.95 -38.35 452.61 44.625" height="37.803248908296936" data-palette-color="#ceb700"><path d="M12.65 0L7 0Q6.8 0 6.8-0.25L6.8-0.25 6.8-28.75 0.3-28.75Q0.05-28.75 0.05-29L0.05-29 0.1-34.6Q0.1-34.8 0.3-34.8L0.3-34.8 19.3-34.8Q19.55-34.8 19.55-34.6L19.55-34.6 19.55-29Q19.55-28.75 19.35-28.75L19.35-28.75 12.8-28.75 12.85-0.25Q12.85 0 12.65 0L12.65 0ZM37.36 0L31.71 0Q31.51 0 31.51-0.25L31.51-0.25 31.56-34.6Q31.56-34.8 31.81-34.8L31.81-34.8 37.36-34.8Q37.61-34.8 37.61-34.6L37.61-34.6 37.56-21 45.06-21 45.06-34.6Q45.06-34.8 45.26-34.8L45.26-34.8 50.81-34.8Q51.06-34.8 51.06-34.6L51.06-34.6 51.16-0.25Q51.16 0 50.91 0L50.91 0 45.31 0Q45.06 0 45.06-0.25L45.06-0.25 45.06-14.95 37.56-14.95 37.56-0.25Q37.56 0 37.36 0L37.36 0ZM81.12 0L64.97 0Q64.77 0 64.77-0.25L64.77-0.25 64.82-34.6Q64.82-34.8 65.02-34.8L65.02-34.8 81.07-34.8Q81.27-34.8 81.27-34.55L81.27-34.55 81.27-28.95Q81.27-28.75 81.07-28.75L81.07-28.75 70.82-28.75 70.82-20.95 81.07-20.95Q81.27-20.95 81.27-20.75L81.27-20.75 81.32-15.1Q81.32-14.9 81.12-14.9L81.12-14.9 70.82-14.9 70.82-6.15 81.12-6.15Q81.32-6.15 81.32-5.9L81.32-5.9 81.32-0.2Q81.32 0 81.12 0L81.12 0ZM121.34 0L112.39 0Q112.19 0 112.19-0.25L112.19-0.25 112.29-34.6Q112.29-34.8 112.49-34.8L112.49-34.8 122.09-34.8Q124.94-34.8 127.19-33.43 129.44-32.05 130.74-29.8 132.04-27.55 132.04-24.9L132.04-24.9Q132.04-22.75 131.07-20.9 130.09-19.05 128.74-17.9L128.74-17.9Q130.19-16.45 130.99-14.55 131.79-12.65 131.79-10.55L131.79-10.55Q131.79-7.65 130.39-5.25 128.99-2.85 126.62-1.43 124.24 0 121.34 0L121.34 0ZM118.29-28.85L118.29-21 122.09-21Q123.84-21 124.92-22.23 125.99-23.45 125.99-24.9L125.99-24.9Q125.99-26.5 124.84-27.68 123.69-28.85 122.09-28.85L122.09-28.85 118.29-28.85ZM118.29-14.95L118.24-6.1 121.34-6.1Q123.14-6.1 124.44-7.43 125.74-8.75 125.74-10.55L125.74-10.55Q125.74-12.35 124.44-13.65 123.14-14.95 121.34-14.95L121.34-14.95 118.29-14.95ZM161.25 0L145.1 0Q144.9 0 144.9-0.25L144.9-0.25 144.95-34.6Q144.95-34.8 145.15-34.8L145.15-34.8 161.2-34.8Q161.4-34.8 161.4-34.55L161.4-34.55 161.4-28.95Q161.4-28.75 161.2-28.75L161.2-28.75 150.95-28.75 150.95-20.95 161.2-20.95Q161.4-20.95 161.4-20.75L161.4-20.75 161.45-15.1Q161.45-14.9 161.25-14.9L161.25-14.9 150.95-14.9 150.95-6.15 161.25-6.15Q161.45-6.15 161.45-5.9L161.45-5.9 161.45-0.2Q161.45 0 161.25 0L161.25 0ZM183.61 0.5L183.61 0.5Q180.91 0.5 178.69-0.88 176.46-2.25 175.14-4.53 173.81-6.8 173.81-9.55L173.81-9.55 173.81-11.85Q173.81-12.1 174.06-12.1L174.06-12.1 179.66-12.1Q179.86-12.1 179.86-11.85L179.86-11.85 179.86-9.55Q179.86-7.9 180.96-6.73 182.06-5.55 183.61-5.55L183.61-5.55Q185.16-5.55 186.26-6.75 187.36-7.95 187.36-9.55L187.36-9.55Q187.36-11.4 184.96-12.75L184.96-12.75Q184.16-13.2 182.46-14.15 180.76-15.1 179.26-15.95L179.26-15.95Q176.51-17.55 175.19-19.98 173.86-22.4 173.86-25.45L173.86-25.45Q173.86-28.25 175.21-30.48 176.56-32.7 178.79-34 181.01-35.3 183.61-35.3L183.61-35.3Q186.26-35.3 188.49-33.98 190.71-32.65 192.04-30.43 193.36-28.2 193.36-25.45L193.36-25.45 193.36-21.35Q193.36-21.15 193.16-21.15L193.16-21.15 187.56-21.15Q187.36-21.15 187.36-21.35L187.36-21.35 187.31-25.45Q187.31-27.2 186.21-28.3 185.11-29.4 183.61-29.4L183.61-29.4Q182.06-29.4 180.96-28.23 179.86-27.05 179.86-25.45L179.86-25.45Q179.86-23.8 180.56-22.7 181.26-21.6 183.11-20.6L183.11-20.6Q183.36-20.45 184.09-20.08 184.81-19.7 185.66-19.23 186.51-18.75 187.19-18.4 187.86-18.05 188.01-17.95L188.01-17.95Q190.51-16.55 191.96-14.53 193.41-12.5 193.41-9.55L193.41-9.55Q193.41-6.7 192.09-4.42 190.76-2.15 188.54-0.83 186.31 0.5 183.61 0.5ZM216.83 0L211.18 0Q210.98 0 210.98-0.25L210.98-0.25 210.98-28.75 204.48-28.75Q204.23-28.75 204.23-29L204.23-29 204.28-34.6Q204.28-34.8 204.48-34.8L204.48-34.8 223.48-34.8Q223.73-34.8 223.73-34.6L223.73-34.6 223.73-29Q223.73-28.75 223.53-28.75L223.53-28.75 216.98-28.75 217.03-0.25Q217.03 0 216.83 0L216.83 0ZM269.05 3.2L269.05 3.2 265.6-0.3Q263.8 0.5 261.85 0.5L261.85 0.5Q259.2 0.5 256.95-0.85 254.7-2.2 253.35-4.5 252-6.8 252-9.55L252-9.55 252.05-25.4Q252.05-28.05 253.35-30.33 254.65-32.6 256.87-33.98 259.1-35.35 261.85-35.35L261.85-35.35Q264.5-35.35 266.72-34.02 268.95-32.7 270.27-30.45 271.6-28.2 271.6-25.4L271.6-25.4 271.65-9.55Q271.65-8.1 271.25-6.75 270.85-5.4 270.2-4.25L270.2-4.25 273.3-1.1Q273.5-0.9 273.35-0.75L273.35-0.75 269.4 3.2Q269.2 3.35 269.05 3.2ZM261.85-5.55L261.85-5.55Q263.55-5.55 264.57-6.83 265.6-8.1 265.6-9.55L265.6-9.55 265.55-25.4Q265.55-27 264.5-28.18 263.45-29.35 261.85-29.35L261.85-29.35Q260.15-29.35 259.12-28.15 258.1-26.95 258.1-25.4L258.1-25.4 258.1-9.55Q258.1-7.75 259.27-6.65 260.45-5.55 261.85-5.55ZM294.91 0.5L294.91 0.5Q292.26 0.5 290.01-0.88 287.76-2.25 286.43-4.55 285.11-6.85 285.11-9.6L285.11-9.6 285.21-34.6Q285.21-34.8 285.41-34.8L285.41-34.8 291.01-34.8Q291.21-34.8 291.21-34.6L291.21-34.6 291.21-9.6Q291.21-7.9 292.28-6.73 293.36-5.55 294.91-5.55L294.91-5.55Q296.51-5.55 297.58-6.73 298.66-7.9 298.66-9.6L298.66-9.6 298.66-34.6Q298.66-34.8 298.86-34.8L298.86-34.8 304.46-34.8Q304.66-34.8 304.66-34.6L304.66-34.6 304.76-9.6Q304.76-6.8 303.43-4.5 302.11-2.2 299.88-0.85 297.66 0.5 294.91 0.5ZM324.12 0L318.47 0Q318.22 0 318.22-0.25L318.22-0.25 318.27-34.6Q318.27-34.8 318.47-34.8L318.47-34.8 324.07-34.8Q324.27-34.8 324.27-34.6L324.27-34.6 324.32-0.25Q324.32 0 324.12 0L324.12 0ZM355.53 0L336.88 0Q336.63 0 336.63-0.25L336.63-0.25 336.68-5.7 348.93-29.1 337.33-29.1Q337.13-29.1 337.13-29.3L337.13-29.3 337.13-34.55Q337.13-34.8 337.33-34.8L337.33-34.8 355.43-34.8Q355.68-34.8 355.68-34.55L355.68-34.55 355.68-29.15 343.48-5.85 355.53-5.85Q355.73-5.85 355.73-5.6L355.73-5.6 355.78-0.25Q355.78 0 355.53 0L355.53 0ZM385.24 0L366.59 0Q366.34 0 366.34-0.25L366.34-0.25 366.39-5.7 378.64-29.1 367.04-29.1Q366.84-29.1 366.84-29.3L366.84-29.3 366.84-34.55Q366.84-34.8 367.04-34.8L367.04-34.8 385.14-34.8Q385.39-34.8 385.39-34.55L385.39-34.55 385.39-29.15 373.19-5.85 385.24-5.85Q385.44-5.85 385.44-5.6L385.44-5.6 385.49-0.25Q385.49 0 385.24 0L385.24 0ZM414.5 0L398.35 0Q398.15 0 398.15-0.25L398.15-0.25 398.2-34.6Q398.2-34.8 398.4-34.8L398.4-34.8 414.45-34.8Q414.65-34.8 414.65-34.55L414.65-34.55 414.65-28.95Q414.65-28.75 414.45-28.75L414.45-28.75 404.2-28.75 404.2-20.95 414.45-20.95Q414.65-20.95 414.65-20.75L414.65-20.75 414.7-15.1Q414.7-14.9 414.5-14.9L414.5-14.9 404.2-14.9 404.2-6.15 414.5-6.15Q414.7-6.15 414.7-5.9L414.7-5.9 414.7-0.2Q414.7 0 414.5 0L414.5 0ZM436.86 0.5L436.86 0.5Q434.16 0.5 431.94-0.88 429.71-2.25 428.39-4.53 427.06-6.8 427.06-9.55L427.06-9.55 427.06-11.85Q427.06-12.1 427.31-12.1L427.31-12.1 432.91-12.1Q433.11-12.1 433.11-11.85L433.11-11.85 433.11-9.55Q433.11-7.9 434.21-6.73 435.31-5.55 436.86-5.55L436.86-5.55Q438.41-5.55 439.51-6.75 440.61-7.95 440.61-9.55L440.61-9.55Q440.61-11.4 438.21-12.75L438.21-12.75Q437.41-13.2 435.71-14.15 434.01-15.1 432.51-15.95L432.51-15.95Q429.76-17.55 428.44-19.98 427.11-22.4 427.11-25.45L427.11-25.45Q427.11-28.25 428.46-30.48 429.81-32.7 432.04-34 434.26-35.3 436.86-35.3L436.86-35.3Q439.51-35.3 441.74-33.98 443.96-32.65 445.29-30.43 446.61-28.2 446.61-25.45L446.61-25.45 446.61-21.35Q446.61-21.15 446.41-21.15L446.41-21.15 440.81-21.15Q440.61-21.15 440.61-21.35L440.61-21.35 440.56-25.45Q440.56-27.2 439.46-28.3 438.36-29.4 436.86-29.4L436.86-29.4Q435.31-29.4 434.21-28.23 433.11-27.05 433.11-25.45L433.11-25.45Q433.11-23.8 433.81-22.7 434.51-21.6 436.36-20.6L436.36-20.6Q436.61-20.45 437.34-20.08 438.06-19.7 438.91-19.23 439.76-18.75 440.44-18.4 441.11-18.05 441.26-17.95L441.26-17.95Q443.76-16.55 445.21-14.53 446.66-12.5 446.66-9.55L446.66-9.55Q446.66-6.7 445.34-4.42 444.01-2.15 441.79-0.83 439.56 0.5 436.86 0.5Z" opacity="1" transform="matrix(1,0,0,1,0,0)" fill="#ffffff" class="slogan-text-1" data-fill-palette-color="secondary" id="text-1"></path></svg></g></svg></g></svg></g></svg></g></svg></g></svg></g></svg></g></svg></g><defs></defs></svg><rect width="395.52" height="247.2" fill="none" stroke="none" visibility="hidden"></rect></g></svg></g></svg>